<?xml version="1.0" encoding="utf-8"?>
<!-- Generator: Adobe Illustrator 18.0.0, SVG Export Plug-In . SVG Version: 6.00 Build 0)  -->
<!DOCTYPE svg PUBLIC "-//W3C//DTD SVG 1.1//EN" "http://www.w3.org/Graphics/SVG/1.1/DTD/svg11.dtd">
<svg version="1.1" id="Layer_1" xmlns="http://www.w3.org/2000/svg" xmlns:xlink="http://www.w3.org/1999/xlink" x="0px" y="0px"
	 width="230.3px" height="178.1px" viewBox="0 0 230.3 178.1" enable-background="new 0 0 230.3 178.1" xml:space="preserve">
<path fill="#A6B73A" d="M80.6,99.8h5.1v9.6h0.1c1.3-2.1,3.5-3.1,5.4-3.1c5.4,0,6.7,3,6.7,7.6v11.3h-5v-10.4c0-3-0.9-4.5-3.2-4.5
	c-2.7,0-3.9,1.5-3.9,5.3v9.6h-5.1V99.8"/>
<path fill="#A6B73A" d="M104.6,104 M104.6,99.8v4.2h-5v-4.2H104.6z M99.5,125.2v-18.4h5v18.4H99.5z"/>
<path fill="#A6B73A" d="M120.1,122.8L120.1,122.8c-1.2,2-3.3,2.9-5.7,2.9c-5.5,0-8.3-4.8-8.3-9.9c0-4.9,2.7-9.5,8.1-9.5
	c2.2,0,4.3,0.9,5.4,2.7h0.1v-9.2h5v25.4h-4.8V122.8 M115.6,110.1c-3.3,0-4.4,2.8-4.4,5.9c0,2.9,1.3,5.9,4.4,5.9
	c3.3,0,4.3-2.9,4.3-5.9C120,113,118.9,110.1,115.6,110.1z"/>
<path fill="#A6B73A" d="M140.4,122.8L140.4,122.8c-1.2,2-3.3,2.9-5.7,2.9c-5.5,0-8.3-4.8-8.3-9.9c0-4.9,2.7-9.5,8.2-9.5
	c2.2,0,4.3,0.9,5.4,2.7h0.1v-9.2h5v25.4h-4.8V122.8 M136,110.1c-3.3,0-4.4,2.8-4.4,5.9c0,2.9,1.3,5.9,4.4,5.9c3.3,0,4.3-2.9,4.3-5.9
	C140.4,113,139.3,110.1,136,110.1z"/>
<path fill="#A6B73A" d="M151.7,117.2c0.1,3.2,1.7,4.7,4.5,4.7c2,0,3.7-1.2,4-2.4h4.4c-1.4,4.3-4.4,6.2-8.6,6.2c-5.8,0-9.4-4-9.4-9.7
	c0-5.5,3.8-9.7,9.4-9.7c6.3,0,9.3,5.3,8.9,10.9H151.7 M159.9,114c-0.5-2.6-1.6-3.9-4-3.9c-3.2,0-4.1,2.5-4.2,3.9H159.9z"/>
<path fill="#A6B73A" d="M166.3,106.8h4.8v2.6h0.1c1.3-2.1,3.5-3.1,5.6-3.1c5.4,0,6.7,3,6.7,7.6v11.3h-5v-10.4c0-3-0.9-4.5-3.2-4.5
	c-2.7,0-3.9,1.5-3.9,5.3v9.6h-5.1V106.8"/>
<path fill="#758336" d="M75.6,128.6h3.7v3.4h-3.7v9.1c0,1.7,0.4,2.1,2.1,2.1c0.5,0,1,0,1.6-0.1v3.9c-0.9,0.1-2,0.2-3,0.2
	c-3.1,0-5.8-0.7-5.8-4.4V132h-3.1v-3.4h3.1v-5.5h5V128.6"/>
<rect x="80.6" y="128.6" fill="#758336" width="5.1" height="18.4"/>
<path fill="#758336" d="M105.3,145.8c0,3-1.1,8.1-9.5,8.1c-3.6,0-7.9-1.7-8.1-5.9h5c0.5,1.9,2,2.5,3.8,2.5c2.8,0,4.1-1.9,4.1-4.6
	v-2.4h-0.1c-1.1,1.9-3.3,2.8-5.5,2.8c-5.5,0-7.9-4.2-7.9-9.2c0-4.8,2.7-9.1,7.9-9.1c2.4,0,4.3,0.8,5.5,3h0.1v-2.5h4.8V145.8
	 M100.5,137.6c0-3-1-5.7-4.3-5.7c-2.9,0-4.1,2.5-4.1,5.2c0,2.6,1,5.5,4.1,5.5C99,142.7,100.5,140.2,100.5,137.6z"/>
<path fill="#758336" d="M111.5,139.1c0.1,3.2,1.7,4.7,4.5,4.7c2,0,3.7-1.2,4-2.4h4.5c-1.4,4.3-4.5,6.2-8.6,6.2c-5.8,0-9.4-4-9.4-9.7
	c0-5.5,3.8-9.7,9.4-9.7c6.3,0,9.3,5.3,8.9,10.9H111.5 M119.7,135.9c-0.5-2.6-1.6-3.9-4-3.9c-3.2,0-4.1,2.5-4.2,3.9H119.7z"/>
<path fill="#758336" d="M126.1,128.6h4.8v3.4h0.1c0.9-2.3,3.4-3.9,5.9-3.9c0.4,0,0.8,0.1,1.1,0.2v4.7c-0.5-0.1-1.2-0.2-1.8-0.2
	c-3.7,0-5,2.7-5,5.9v8.3h-5V128.6"/>
<path fill="#607131" d="M139.7,128.4h4.8v2.5h0.1c1.3-1.9,3.2-3,5.6-3c2.3,0,4.4,0.9,5.4,3.1c1.1-1.6,3-3.1,5.5-3.1
	c3.9,0,6.7,1.8,6.7,6.6v12.3h-5.1v-10.4c0-2.5-0.2-4.5-3.1-4.5c-2.9,0-3.4,2.3-3.4,4.7v10.2h-5.1v-10.3c0-2.1,0.1-4.6-3.1-4.6
	c-1,0-3.4,0.6-3.4,4.2v10.7h-5V128.4"/>
<path fill="#607131" d="M186.4,146.8h-4.8v-2.6h-0.1c-1.3,2.1-3.5,3.1-5.6,3.1c-5.4,0-6.7-3-6.7-7.6v-11.3h5v10.4
	c0,3,0.9,4.5,3.2,4.5c2.7,0,3.9-1.5,3.9-5.3v-9.6h5V146.8"/>
<path fill="#607131" d="M192.2,140.8c0,2.2,1.9,3.1,3.9,3.1c1.5,0,3.3-0.6,3.3-2.3c0-1.5-2.1-2.1-5.7-2.8c-2.9-0.6-5.8-1.7-5.8-4.9
	c0-4.7,4.1-5.9,8-5.9c4,0,7.7,1.4,8.1,5.9h-4.8c-0.1-2-1.6-2.5-3.5-2.5c-1.1,0-2.8,0.2-2.8,1.7c0,1.8,2.8,2.1,5.7,2.7
	c3,0.7,5.8,1.7,5.8,5.2c0,4.8-4.2,6.4-8.4,6.4c-4.3,0-8.4-1.6-8.6-6.5H192.2"/>
<path fill="#607131" d="M210.7,125.5 M210.7,121.4v4.2h-5v-4.2H210.7z M205.6,146.8v-18.4h5v18.4H205.6z"/>
<path fill="#607131" d="M225.2,134.9c-0.3-2.1-1.6-3.2-3.7-3.2c-3.2,0-4.3,3.3-4.3,6c0,2.6,1,5.8,4.2,5.8c2.3,0,3.7-1.5,4-3.7h4.9
	c-0.6,4.9-4,7.5-8.9,7.5c-5.5,0-9.3-3.9-9.3-9.4c0-5.7,3.4-10,9.4-10c4.3,0,8.3,2.3,8.6,7H225.2"/>
<path fill="#607131" d="M6.2,119.2c1.5,2.8,4.6,2.5,6.9,4c2.3,1.4,5.6,3.7,6.8,6.3c0.6,1.1,0.5,2.5,1,3.6c0.4,1.8,1.5,3.1,2.4,4.7
	c0.9,1.6,2.1,3.3,2.4,4.9c0.2,1.2-0.1,1.7,0.9,2.9c1.2,1.4,2.9,2.4,3.7,4.2c0.2,0.6,0,1.7,0.2,2.1c0.3,0.8,1.2,1,1.8,1.6
	c1.7,1.5,1.9,2.7,2.8,4.5c0.8,1.6,2.8,1.9,3.5,3.5c-1.2,0.1-2.9,0.9-3.4,2.2c-0.4,1.2,0.8,2.5,1.3,3.5c0.9,1.9,1.4,3.4,0.6,5.3
	c-0.6-2.2-1.7-3.7-4-4.2c-3-0.7-2.4,1.5-3.1,3.6c-0.6-0.6-1.8-0.4-2.3-0.9c-0.6-0.7,0.1-1.9-0.1-2.8c-0.2-1-1-1.2-1.6-0.5
	c-0.7,0.8-1.2,2.3-1.4,3.3c-0.4-0.7-2-1.7-2.8-1.8c0.1-0.8,2.4-4.3-0.2-4c-1.3,0.2-3.1,3-3.4,4.1c-0.8-1-2.3-3-2.4-4.4
	c-0.2-1.9,1.8-2.8,2.4-4.5c0.3-1,0.1-1.6-0.2-2.6c-0.1-0.4,0-0.9-0.3-1.3c-0.2-0.4-0.8-0.6-1.1-1c-0.5-0.8-0.3-1.7-0.5-2.6
	c-0.2-1-1-2.1-1.1-3c-0.1-0.8,0.2-1.2-0.1-2c-0.2-0.6-0.6-1.2-0.9-1.7c-0.5-1.1-0.7-2.3-1.5-3.2c-0.8-1-1.9-1.7-2.4-3
	c-0.4-0.9-0.3-1.9-0.5-2.9c-0.2-1.2-0.6-2.5-0.9-3.7c-0.3-1.1,0-2.3-0.3-3.4c-0.3-1.2-1.2-1.5-1.1-2.8c0.1-1,0.1-1.8,0-2.8
	c-0.1-1-0.2-1.6-0.7-2.4c-0.2-0.4-0.5-0.7-0.6-1.2c-0.1-0.5,0.2-0.8,0.1-1.2c0-0.1-0.1-0.3-0.2-0.4"/>
<path fill="#607131" d="M35.8,119c0,0.2-0.1,0.5-0.1,0.7c-0.5,2.1,0.3,1.6,1.3,2.8c1.3,1.6-0.5,1.8-0.4,3.5c0.1,0.4,0.9,0.6,0.9,1.5
	c-0.1,0.6-0.6,1.2-0.7,1.8c0.7,0.1,1.3-0.3,2,0c0.2,0.1,0,1,0.1,1c0.3,0.2,0.7,0.1,1,0.2c1.5,0.5,2.7-0.9,4-0.4
	c-0.5,1.1,0.9,1.7,1.3,2.6c-0.6,0.3-1,0.8-1.3,1.2c-0.2-0.4-0.7-1.3-1.2-1.6c-1.8-0.6-1.3,1-2,1.8c-2.9,3.3-4-0.6-6.8-1.2
	c-1-0.2,0.7,3,0.7,3c0.4,1.6-1.5,2.3-2.1,3.6c-0.4,0.9,0.1,2-0.1,3c-1.2-0.5-2-0.1-2.6-1.5c-0.6-1.2-0.5-2.5-0.6-3.8
	c-0.1-0.9-0.4-1.8-0.6-2.6c-0.1-0.4-0.3-0.7-0.2-1.1c0.1-0.5,0.5-0.8,0.6-1.2c0-0.5-0.7-1.7-0.9-2.2c-0.4-0.8-0.8-1.5-0.8-2.4
	c-0.2-1.9,0.7-3.6,1.8-5c1-1.1,2-2.1,3-3.2c0.2-0.2,0.4-0.7,0.6-0.8c0.5-0.1,0.4,0.4,0.8,0.5c0.7,0.1,1.4-0.1,2.1,0"/>
<path fill="#607131" d="M64.3,114.9c-0.4,2.2-1.8,3.1-3,4.6c-1.4,1.7-0.9,3.5-1.5,5.6c-0.2-1.5-0.1-2.9-0.1-4.4
	c-0.1-1.4-0.6-3.2-0.4-4.6c0.7-0.6,1.7-0.6,2.4-1c0.4,0.4,1,0.3,1.5,0.2L64.3,114.9"/>
<path fill="#607131" d="M52.1,111.8c-0.1,0.5,0.2,1,0.1,1.5c-0.3,0.8-1.3,1.7-1.8,2.3c-0.7,1.1-1.2,1.5-0.8,2.3
	c0.4,0.7,1.3,0.6,0.4,1.9c0.9,0.5,1.4,1.1,1,2.2c0.8,0.2,1.6,1.5,1.8,2.3c0.7-0.3,2.2-1.7,2.2-2.4c0-0.2-0.5-0.8-0.6-1.1
	c-0.2-0.5-0.1-1.4,0-2c0.2-1.4,0.4-3,0-4.3C54.4,114.3,52.5,111.3,52.1,111.8"/>
<path fill="#607131" d="M30.5,90.8c0.8,0.7,1.8,0.8,2.8,0.9c-0.4,0.2-0.9,0.5-1.2,1c0.4,0.1,0.8,0.3,1.2,0.5
	c-0.3,0.1-0.6,0.3-0.8,0.4c0.4,0.3,0.7,0.6,0.7,1c-1.1-0.3-2.4-0.3-3.5-0.4c1-1.4,0-1.8-0.7-2.9c0.4,0,0.9-0.1,1.3-0.3"/>
<path fill="#607131" d="M42.4,92.2c-2.1,1.3-1,1.2-0.1,2.6c-0.5,0.5-1.9,1.4-1.9,2.2c-0.1,0.9,0.8,1.1,1.1,1.9
	c-0.7,0.3-2.5,1.8-0.5,1.7c-0.3,2-3.3,3.1-1.8,5.5c0.6,0.8,2,1,2.5,2c0.3,0.8-0.5,1.4-0.1,2.1c0.4,0.9,1.5,0.3,1.9,1.3
	c0.3,0.7-0.8,2.4,0.1,2.9c0.5,0.2,1.9-4.4,2.1-5.3c0.3-1,0.2-1.1,0.9-2.1c0.4-0.6,0.9-1.2,0.7-1.9c1.2-0.6,1.6-0.5,0.8-1.8
	c-0.6-0.9-0.9-1.3-1.2-2.4c-0.2-1-0.4-1.3-1.2-2c-0.5-0.5-1.8-1.4-1.9-2.1c-0.2-0.7,0.3-1.8,0.5-2.4c0.3-1.3,0.6-1.4,1.6-1.9
	c2.3-1.1,4-1.8,6.5-1.3c0.7,0.1,3,0.4,3.2,1.5c0.1,0.8-0.7,0.4-0.9,0.9c-0.5,0.9-0.3,0.2,0.2,1c1,1.8,1.7,3.5,0.6,5.5
	c-1,2.2-4.3,3.8-4.9,6c-0.4,1.3,0.6,0.7,1.6,0.5c0.9-0.1,1.8,0,2.6,0.1c0.8,0.1,1.3-0.1,1.9,0.3c-1.6-1.7-0.1-3.4,2-3.5
	c1-0.1,1.4,0.3,2.2-0.2c0.8-0.6,0.9-1.9,2.2-2c-1.3-1.2-1.3-1.5-1.3-3.2c0-1.2-0.2-2.4-0.7-3.4c-0.6-1.3-1.5-1.4-2.3-2.4
	c-0.7-0.8-0.7-2.9,0.6-3.4c-2.3-0.9-4-2-6.5-1.3c-2,0.5-3.5,2-5.5,2.5C45.5,90.4,44,91.2,42.4,92.2"/>
<path fill="#607131" d="M42.1,91.8c-0.7,0.4-1.6,0.8-1.5,1.7c0.2,1.4,1.3,0.5,0,1.9c-0.7,0.8-1.1,1.4-0.7,2.5c0.4,0.9,1.1,0.4,0.2,1
	c-0.4,0.3-0.5,0.6-0.7,1c-0.1,0.2-0.1,0.4,0.1,0.6c0.4,0.5,0.6,0.5,1.3,0.5c-0.1-0.3-0.3-0.5-0.4-0.8c-0.8,2.9-4,4.6-0.3,7.2
	c1.4,1,0.2,2.7,1.5,3.7c1.5,1.1,0.4,2.2,1.4,3.6c0.2,0.2,0.5,0.3,0.8,0.2c1.5-0.6,2-3.9,2.4-5.3c0.3-1.1,1.6-2.4,1.7-3.5
	c0.1-1,1.2-1.1,1.3-2.1c0.1-0.9-1.4-2.7-1.7-3.4c-0.7-1.8-3.4-3.9-2.6-6.1c1-2.9,5.5-3.1,7.9-2.7c2.4,0.4,1.8,0.5,1,1.9
	c-0.2,0.3,0,0.6,0.2,0.8c4.8,4.6-3.8,7.8-4.2,12c0,0.3,0.1,0.6,0.4,0.8c0.6,0.2,0.7,0.2,1.3,0.1c1.6-0.4,3.5-0.3,5.1,0.2
	c0.6,0.2,0.9-0.6,0.6-1.1c-1.3-2,2.9-2.3,3.9-2.7c1-0.5,0.9-1.7,2.2-2c0.4-0.1,0.5-0.7,0.3-1c-1.7-1.7-1.2-4.3-2-6.4
	c-0.5-1.3-4.6-3.4-2-4.9c0.5-0.3,0.6-0.9,0-1.2c-2.8-1.2-5-2-7.9-1c-1.6,0.6-2.9,1.6-4.5,2.1C45.2,90,43.7,90.8,42.1,91.8
	c-0.3,0.3,0.1,1,0.5,0.8c2.2-1.3,4.6-1.7,6.8-2.8c0.9-0.4,1.8-1,2.7-1.4c2.5-1.2,4.7,0.1,6.9,1c0-0.4-0.1-0.7-0.1-1.1
	c-1.4,0.9-1.7,2.8-0.6,4.2c0.4,0.5,0.9,0.8,1.3,1.2c1.9,1.4,1.3,3.3,1.6,5.1c0.1,1.2,0.6,1.8,1.4,2.7c0.1-0.3,0.2-0.7,0.3-1
	c-0.9,0.2-1.2,0.5-1.7,1.3c-1,1.4-2.3,0.5-3.6,1.2c-2,1-2.5,2.4-1.3,4.3c0.2-0.4,0.4-0.7,0.6-1.1c-1.2-0.3-2.4-0.3-3.6-0.4
	c-0.4,0-0.7,0-1.1,0c-1.5,0-0.2-0.7,0.4-1.4c1.8-2.1,3.8-3.3,4.2-6.2c0.1-1-0.4-2.1-0.7-3c-0.2-0.3-0.4-0.7-0.6-1
	c-0.8-1-0.4-0.1,0.3-0.4c0.8-0.3,0.7-1.7,0.1-2.1c-1.6-1.1-3.6-1.3-5.4-1.3c-1.6,0-5.1,1-6,2.4c-0.9,1.4-1.7,3.4-0.9,4.9
	c0.3,0.6,5.3,5.9,3.5,6.8c-0.2,0.1-0.4,0.3-0.4,0.5c-0.1,1.4-1.1,2-1.4,3.3c-0.3,1.1-0.6,2.2-1,3.3c-0.1,0.4-0.3,0.9-0.5,1.3
	c-0.5,1.4,0.4-0.3,0.5-0.7c0.1-0.7-0.1-1-0.6-1.5c-0.6-0.6-1.5-0.2-1.3-1.7c0.1-0.9-0.1-1.2-0.7-1.8c-1.1-1.2-3-1.9-1.6-3.9
	c0.6-0.9,1.2-1.5,1.5-2.6c0.1-0.3-0.2-0.6-0.5-0.6c0.2-0.3,0.5-0.5,0.8-0.6c0.3-0.2,0.3-0.6,0.1-0.8c-0.8-1.2-0.2-2.3,0.8-3.2
	c0.2-0.2,0.3-0.6,0.1-0.9c-0.7-0.9-1.3-0.9-0.1-1.8C43.3,92.2,42.6,91.5,42.1,91.8"/>
<path fill="#607131" d="M40.6,104c-0.8,0.1-1.8-0.3-2.6-0.4c0.7-1,2.4-1.8,2.9-2.9c0.6-1.5-1.2-0.8-2-1.7c0.7-1,2.6-1.8,1.5-3.3
	c-0.4-0.6-1-0.4-1.5-0.7c-0.7-0.3-1.1-0.8-1.8-1.1c1-0.5,2-0.8,2.7-1.7c0.8-1,0.3-1.7,1-2.7c1.1-1.6,3.6-2.8,5.4-3.6
	c3.6-1.5,7.2,0.9,10.6,2.2c0.5,0.2,2,0.3,2.3,1c0.2,0.7-1.1,1.7-1.7,1.7c-0.7,0.1-1.9-0.5-2.7-0.6c-1-0.1-1.9-0.3-2.9-0.4
	c-2.4-0.2-4,0.9-6.1,1.8c-0.8,0.3-2.4,0.7-2.7,1.7c-0.3,0.8-0.1,2.5-0.2,3.4c-0.2,1.6,0.2,3.4-0.2,5c-0.1,0.7-1,3.2-1.9,2.3"/>
<path fill="#607131" d="M40.6,103.5c-0.8-0.1-1.8-0.3-2.6-0.5c0.1,0.3,0.3,0.7,0.4,1c0.6-0.7,5.2-4.3,2-5c-0.6-0.1,1-1.9,0.9-2.7
	c-0.2-1.7-2.6-2.3-3.8-3c-0.1,0.4-0.1,0.9-0.2,1.3c1-0.5,2.5-1.1,3.1-2.2c0.5-1.1,1.3-3,2-3.7c1.1-1,2.6-1.6,4-2.2
	c3.3-1.5,7,1,10,2.2c1.3,0.5,0.3,1.3-1.1,1c-1.2-0.3-2.4-0.4-3.6-0.6c-1.9-0.3-3.7,0.6-5.4,1.4c-1,0.5-3,0.8-3.7,1.8
	c-0.9,1.3-0.6,2.7-0.7,4.3c0,0.7-0.2,7.3-1.1,6.9c-0.8-0.4-1.3,0.9-0.5,1.2c3.5,1.7,3-7.6,3-8.7c0.1-2.2,0.5-3,2.5-3.8
	c2.3-0.9,4-2,6.7-1.6c2.2,0.3,4.3,1.6,6.3,0.1c0.9-0.6,1.2-1.9,0.2-2.7c-0.8-0.6-2.2-0.8-3.1-1.1c-1.4-0.6-2.9-1.3-4.4-1.7
	c-3.2-0.8-5.4-0.3-8.3,1.2c-0.9,0.5-1.9,1.1-2.6,1.9c-1.4,1.7-1.7,3.8-4,4.8c-0.7,0.3-0.6,1.1,0,1.4c0.2,0.1,1.3,1,2,1.1
	c2.4,0.6,0.2,2.1-0.4,2.8c-0.2,0.2-0.2,0.7,0.1,0.9c0.5,0.3,0.8,0.5,1.3,0.6c0.9,0.2-2,2.8-2.3,3.1c-0.3,0.4,0,1,0.4,1
	c0.9,0.2,1.7,0.3,2.6,0.3C41.2,104.6,41.3,103.6,40.6,103.5"/>
<path fill="#607131" d="M59.1,88.7c0.2,0.3-0.3,0.4-0.2,0.8c0.4,1.2,2.4,0.3,3.5,0.1c-1.3,1.6,1.8,0.9,2.5,0.9
	c-1.5,1.1-5.4,1.9-6.9,0.4"/>
<path fill="#607131" d="M58.9,88.5c-0.5,0.6-0.7,1.5,0.2,2c1.1,0.6,2.4-0.1,3.5-0.3c-0.2-0.3-0.3-0.6-0.5-0.8
	c-1.6,2.2,1.7,1.7,2.9,1.8c-0.1-0.3-0.2-0.6-0.2-0.9c-1.6,1.1-4.6,1.7-6.2,0.3c-0.6-0.5-1.4,0.5-0.8,1c2,1.8,5.6,0.8,7.6-0.5
	c0.4-0.2,0.2-0.9-0.2-0.9c-0.3,0-0.7,0-1,0c-0.2,0-0.5,0-0.7,0c-0.4,0-0.7,0.1-0.5-0.2c0.3-0.3,0-0.9-0.5-0.8
	c-0.6,0.1-3.1,1-2.8-0.2c0-0.2-0.1-0.4-0.2-0.4c0,0-0.1,0-0.1-0.1C59.2,88.3,59,88.3,58.9,88.5"/>
<path fill="#607131" d="M57.4,104.5c1-0.2,0.6,0.7,1.2,1.1c0.8,0.7,1,0.2,2.1,0c0.8-0.1,1.6,0.3,2.4,0.2c0.8,0,1.6-0.3,2.4-0.3
	c-0.5-1.2-2-2.3-2.9-3c-1.9-1.7-1.8-0.6-4.1-0.3"/>
<path fill="#607131" d="M69.3,97.6c0.3,0.7,0.3,1.8,0,2.6c-0.5,1-2,0.9-2.4,1.7c-0.3,0.7,0.4,1.2,0.5,1.9c0,0.6-0.3,0.8-0.3,1.3
	c0,0.4,0.3,1,0.4,1.5c0.6-1.6,2.3-1.5,3-2.7c0.7-1.4,1-2.7,0.4-4.1c0.4,0.6,1.3,0.1,1.5,0c0.2-0.1-1.2-1.4-2.8-2.4"/>
<path fill="#607131" d="M45,114.1c0.2-0.2,0.5-1,0.9-1c-0.2-0.3-0.3-0.5-0.5-0.8c-0.2,0.8-1,1.2-1.2,2c-0.1,0.4,0.1,1,0.7,0.9
	c0.2,0,0.4-0.1,0.7-0.2c0.1,0,0.3-0.1,0.5-0.1c0.5-0.1-0.1,0.2,0.1-0.4c-0.1,0.2-0.3,0.4-0.4,0.5c-0.1,0.2-0.2,0.5-0.3,0.7
	c0,0.2,0.1,0.5,0.3,0.5c0.2,0.1,0.4,0.1,0.6,0.2c0.3,0.1,0.6-0.4,0.4-0.6c-0.1-0.1-0.3-0.3-0.4-0.4c0,0.2,0.1,0.5,0.1,0.7
	c0.3-0.5,1.4-1.2,0.8-1.9c-0.6-0.7-1.6-0.3-2.4-0.2c0.2,0.3,0.4,0.6,0.7,0.9c0.2-0.8,0.9-1.2,1.2-2c0.1-0.3,0-0.8-0.5-0.8
	c-1,0-1.4,0.7-2,1.5C43.7,114,44.6,114.7,45,114.1"/>
<path fill="#607131" d="M16.7,127.5c0.9,1.8,2,3.7,3.9,4.5c2.8,1.3,6,0.7,8.9,1.6c0.6,0.2,1.1-0.6,0.6-1c-1.6-1.1-3.6-1.6-5.5-1.8
	c-3-0.3-5-1.5-6.7-4.1C17.4,126.2,16.3,126.8,16.7,127.5"/>
<path fill="#607131" d="M20.2,137c0.7,0.9,1.6,2.3,2.7,2.8c2,0.8,4.4,0,6.6,0c0.7,0,1.2-0.8,0.6-1.3c-1.8-1.3-3.8-0.3-5.8-0.4
	c-1.5-0.1-2-2-3.7-1.9C20.2,136.2,20,136.7,20.2,137"/>
<path fill="#607131" d="M23.5,145.5c0.7,0.3,1.8,1.2,2.8,1.4c1.6,0.4,3.4,0.1,5.1,0.3c0.7,0.1,1.1-0.9,0.5-1.3c-1.6-1.1-3.1-1-5-1.1
	c-1,0-2.6-0.9-3.5-0.1C23.1,145,23.1,145.4,23.5,145.5"/>
<path fill="#607131" d="M29.7,152.3c0.7,0.3,1.4,0.7,2.1,0.9c0.7,0.2,1.6,0.2,2.3,0.3c0.4,0.1,0.9-0.5,0.5-0.9
	c-0.5-0.5-1.2-0.6-1.9-0.6c-1,0-1.8-0.5-2.7-0.8C29.4,151.1,29,152,29.7,152.3"/>
<path fill="#607131" d="M31.2,156.3c0.4,0.5,1,1.1,1.7,1.3c0.5,0.1,1,0,1.5-0.1c0.5-0.1,1.1-0.1,1.6-0.1c0.5,0,0.5-0.7,0.1-0.9
	c-0.8-0.4-1.7-0.1-2.6-0.3c-0.6-0.1-1-0.7-1.6-0.9C31.3,155.2,30.8,155.8,31.2,156.3"/>
<path fill="#607131" d="M41.4,121c-0.7,0.3-1.2,1.1-1.4,1.8c-0.1,0.6-1,1.1-1.6,1.4c-0.6,0.3-0.2,1.1,0.4,0.9
	c0.7-0.3,1.4-0.7,2.1-1.1c0.3-0.2,0.7-0.4,0.9-0.8c0.2-0.4,0.3-0.8,0.5-1.2C42.7,121.5,42.2,120.7,41.4,121"/>
<path fill="#607131" d="M59.4,84.9c-2-1.2-4.1-0.8-6.3-0.5c-0.4,0-0.4,0.7,0,0.7c1.9,0.2,3.9,0.1,5.7,0.8
	C59.4,86.1,60,85.2,59.4,84.9"/>
<path fill="#607131" d="M6.3,121.3c0.1,1.4,2.3,3.2,3.7,3.6c1.7,0.4,2.4-1.7,3.3-3.1c0.6-1,0.9-1.8,2-2.8c1.3-1,2.3-0.9,3.8-0.5
	c3.4,0.9,5.7,3.6,7.4,6.4c0.7,1.2,1.1,2.4,1.7,3.6c1-1.3,1-4.4,0-5.7c-0.3-0.5-1.1-0.8-1.4-1.2c-0.4-0.6-0.2-0.9-0.4-1.6
	c-0.5-1.4-1.6-1.6-2.9-2.2c-1-0.3-2.2-0.7-3-1.2c-1.1-0.7-1.9-2.2-3.3-1.6c-1,0.3-1.8,2-3,2.1c-1.5,0.1-1.2-1.3-2.9,0
	c-0.9,0.8-1.9,1.6-2.8,2.4c-0.6,0.6-1.2,1.9-2,2.1"/>
<path fill="#607131" d="M15,126.5c4.3,1.7,9.5,1.8,14.1,1.9c0.9,0,0.9-1.2,0-1.2c-4.8,0-9.3-2.3-14-1.7
	C14.7,125.6,14.6,126.3,15,126.5"/>
<path fill="#607131" d="M4.4,115.3c-0.7,1.6,2.1,0.3,4.2,0.5c1.7,0.2,0.4-2.9,0.7-4.4c0.1-0.8,0.2-1.7,0.4-2.4
	c0.8-2.6,1.2-5.3,2.1-8c1.4-4.3,3.4-8.2,6-12c1-1.5,1.9-2.9,3.1-4.3c0.8-1,2-1.9,2.5-3.1c0.4-0.9,0.6-1.8,1.2-2.8
	c0.4-0.7,1.2-1.4,0.9-2.3c-5.9,1-8.5,8.9-10.9,13.3c-2.4,4.3-4.7,8.1-7.5,12c-1.4,2.1-2.5,4.4-3.7,6.6c-0.9,1.7-0.3,1.9,0.1,3.7"/>
<path fill="#607131" d="M7.7,121.2c3.7-4.5,10.1-9,16-9.4c0.7,0,0.7-1.3,0-1.3c-4.3-0.1-8.3,1.3-11.9,3.7c-1.4,0.9-7.2,4.7-5,7
	C7.1,121.5,7.5,121.6,7.7,121.2"/>
<path fill="#607131" d="M43,83.6c-2,0.1-5.1,1.6-6.7,2.7c-1.1,0.7-0.9,1.5-2,2.1c-2.1,1.1-5.9-2.1-7.6-0.2c-1.2,1.3-1.1,4.5-0.6,6.2
	c0.2,0.8,1,1.8,1.7,2.4c0.7,0.5,1.7,0.5,2.2,1.3c1.4-1.8,1.4,1.6,1.4,2.4c0,0.8,0.4,1.9-0.5,2.6c-1,0.8-2.3-0.3-3.3,0.7
	c-1.1,0.9-0.7,2.9-1.9,3.8c-0.9-1.4,0.5-4.2,0.5-5.9c0-2.2-1.8-3.5-2.4-5.6c-0.1-0.3,0.2-0.6,0.1-0.8c-0.1-0.3-0.5-0.3-0.6-0.5
	c-0.2-0.7-0.5-0.9-0.6-1.7c-0.1-0.8,0-1.8,0-2.6c0-1.8,0.9-3.8,2-5.3c2.1-2.8,5.6-3.3,8.9-2.9c1.7,0.2,3.4,0.5,5.2,0.5
	c0.9,0,2.4-0.4,3.1-0.1"/>
<path fill="#607131" d="M25.5,79c-2.1,0.8-3.1,3.5-4.4,5.1c-1.9,2.3-2,4.5-2.7,7.4c-0.9,3.6-1.4,7.3-1.2,11.1
	c0.2,2.2,0.1,5.9,1.6,7.7c1-0.7,0.4-2,0.9-2.9c0.3-0.9,1.3-1.4,1.6-2.3c0.3-1.1,0-2-0.1-3.2c-0.2-1.3,0.1-2.6,0.1-3.9
	c0-2.4-0.1-4.8,0.1-7.2c0.3-2.7,1-4.6,2.2-7c0.4-0.8,2.6-3.7,1.8-4.4"/>
<path fill="#607131" d="M24.5,77c-2.1,1-4.4,0.7-6.4,2.3c-2,1.5-3.7,3.4-5.4,5.3c-3.3,3.9-9.3,6.2-10.2,11.9
	c-0.4,2.6-1.9,5.7-1.1,8.3c2.7-3.4,3.5-7.9,7.3-10.3c0.8-0.5,1.7-0.9,2.3-1.6c0.8-0.9,1.2-2.3,2-3.3c0.6-0.8,1.3-1.6,2-2.4
	c1.1-1.2,2.5-2.1,3.6-3.3c0.9-0.9,1.6-1.6,2.3-2.6c0.6-0.8,1.3-1.5,2-2.2c0.5-0.5,0.8-1.1,1.3-1.5"/>
<path fill="#607131" d="M77.4,1.9c-2.4,1.3-3.3,3.5-0.3,4.5c0.7,0.2,2.7,0.2,3.1,1.3c0.2,0.8-1.7,1.6-2.1,2
	c-1.7,1.9-3.7,2.7-5.5,0.4c-1.8-2.3-0.2-4.5,1.5-6.1c0.5-0.5,2-1.5,2.5-1.6"/>
<path fill="#607131" d="M92.8,3.2c-0.5-0.5-1.1-0.5-1.8-0.5c-0.9-0.1-1.5-0.1-2.3,0.4c-1.4,0.9-2.5,2.3-2.2,4.1
	c0.1,0.5,0.7,0.7,1.1,0.3c0.7-0.7,1.3-1.6,2.1-2.3c0.4-0.4,0.9-0.7,1.3-1.1c0.5-0.5,1-0.2,1.6-0.3C92.8,3.8,93,3.4,92.8,3.2"/>
<path fill="#607131" d="M84,1.2c-1-0.3-1.7,1.1-2,1.8c-0.5,1.1-0.6,2.5-0.4,3.7c0.1,1.3,2.2,1,2-0.3c-0.2-1.3-0.1-2.4,0.4-3.6
	C84.1,2.5,84.8,1.5,84,1.2"/>
<path fill="#607131" d="M89.5,10.5c0.4-0.3,0.6-0.7,0.8-1.1c0.4-0.5,1.2-0.7,1.7-0.8c1.2-0.2,2.5,0.2,3.5,0.8c1.2,0.7,2.1-1.4,0.9-2
	c-1.7-0.8-3.6-1-5.4-0.5c-1.2,0.3-3.1,2.3-2.1,3.5C89.1,10.6,89.3,10.7,89.5,10.5"/>
<path fill="#607131" d="M88,14.6c1.1-0.2,2.3-0.4,3.4-0.1c1.4,0.4,1.4,1.5,1.1,2.7c-0.3,1.3,1.8,1.6,2.1,0.3c0.3-1.7-0.2-3.6-2-4.3
	c-1.5-0.6-3.5-0.3-5,0.1C87,13.6,87.3,14.7,88,14.6"/>
<path fill="#607131" d="M83.4,16.9c1.6,0.1,1.4,1.5,1.1,2.7c-0.2,0.7-0.4,1.2-0.1,2c0.2,0.8,1.3,0.6,1.8,0.3c1.2-1,1.2-3.1,0.6-4.4
	c-0.6-1.3-1.9-1.9-3.3-1.7C82.8,15.8,82.8,16.9,83.4,16.9"/>
<path fill="#607131" d="M75.1,18.2c1.1,0,1.4,0.6,1.3,1.6c-0.1,0.9-0.4,1.8-0.8,2.5c-0.8,1.3,1.1,2.8,1.9,1.5c0.8-1.3,1.4-3,1.1-4.5
	c-0.4-1.7-1.9-2.4-3.5-2.1C74.2,17.2,74.4,18.2,75.1,18.2"/>
<path fill="#607131" d="M67.4,19.2c1.5,0.1,2,0.9,2.1,2.3c0,0.5,0,1.1-0.2,1.6c-0.2,0.7-0.7,1.2-0.4,2c0.2,0.4,0.7,0.7,1.1,0.6
	c2-0.3,1.8-3.8,1.4-5.2c-0.5-1.8-2.3-2.8-4.1-2.2C66.9,18.5,67,19.2,67.4,19.2"/>
<path fill="#607131" d="M57.8,22.7c1.2,0.4,2.2,0.8,3,1.8c0.7,1,0.9,2.6,0.6,3.7c-0.2,0.7,0.8,1.2,1.1,0.5c0.6-1.7,1-3.2,0.2-4.9
	c-0.8-1.7-3-2.3-4.7-1.9C57.5,21.9,57.3,22.6,57.8,22.7"/>
<path fill="#607131" d="M49.9,27.9c1.2-0.4,2.9-0.2,4.1,0c1.8,0.3,3.1,1.4,3.6,3.2c0.2,0.9,1.4,0.6,1.2-0.3
	c-0.5-1.8-1.7-3.8-3.6-4.5c-2.1-0.8-3.7-0.1-5.7,0.7C49,27.3,49.4,28.1,49.9,27.9"/>
<path fill="#607131" d="M39.2,35c4-1,13.5-1.8,16.1,2.6c0.3,0.6,1.3,0.3,1.4-0.4c0.1-3.3-3.9-4.8-6.7-5.4c-3.8-0.9-8,0.2-11.2,2.4
	C38.6,34.5,38.8,35.1,39.2,35"/>
<path fill="#607131" d="M61.6,82.9c-1.8-1.3-4.2-1.5-6.3-1.2c-0.6,0.1-0.4,0.9,0.1,0.9c2.1-0.2,3.6,0.7,5.5,1.5
	C61.7,84.4,62.3,83.3,61.6,82.9"/>
<path fill="#607131" d="M26.7,50C26.7,50,26.8,50,26.7,50c0.5,0,0.7-0.3,0.6-0.7c-0.1-0.2-0.2-0.4-0.3-0.6c-0.7-1-0.5-0.2-0.3-0.3
	c2.3-1,4.7-0.6,7.2-1c2.7-0.4,4.6-0.9,7.2,0.1c2.3,0.9,3,5.6,3.9,7.8c0.2,0.4,0.9,0.2,0.8-0.2c-0.7-3.1-0.1-6.5-2.8-8.7
	c-3.2-2.5-6.7-1.3-10.3-0.9c-2.4,0.3-7-0.7-8.4,2.1C23.5,49,25.9,49.9,26.7,50c0.1-0.3,0.1-0.7,0.1-1c0,0-0.1,0-0.1,0
	C26.2,49.2,26.1,50,26.7,50"/>
<path fill="#607131" d="M28,43.8c0.4-0.2,0.5-0.3,0.8-0.6c-0.6,0.2-0.5,0.3,0.3,0.3c0.6,0.1,1.3,0.2,1.9,0.3
	c2.1,0.4,4.1,0.2,6.1-0.3c3.4-0.9,5.6-1.2,8.8,0.4c1.9,1,3.5,2.2,4,4.4c0.3,1.6-1,1.7-1.6,2.5c-0.5,0.7-1,1.7-0.7,2.6
	c0.6,1.6,0.2,2.6,0,4.2c-0.2,1.7,0.7,2.6-0.2,4.6c-0.6,1.4,0.4,3.6,0.9,4.9c0.2,0.4,0.9,0.3,0.8-0.2c-0.3-1.6-1.2-3.3-0.5-5
	c0.4-1,0.7-1.3,0.7-2.3c0-1.1-0.4-1.7,0.4-2.8c0.4-0.5,0.4-1.1,0.3-1.7c0-1-1.3-2-0.3-3c0.7-0.7,1.4-0.9,2-1.7
	c0.8-1.3,0.4-3.4-0.4-4.6c-2.7-4-8.7-6.2-13.3-5.2c-3,0.7-5.8,0.6-8.8,1.1c-1.2,0.2-1.2,0.5-1.8,1.3C26.9,43.6,27.5,44.1,28,43.8"/>
<path fill="#607131" d="M31.4,38.7c2.2,1.7,4.9,0.7,7.5,0.3c3.6-0.5,7.1-0.1,10.4,1.1c4,1.4,3.7,5.3,3.9,8.8
	c0.1,2.3,1.8,4.1,3.7,5.1c0.6,0.3,1.4-0.1,1.1-0.9c-0.7-1.7-2.4-2.6-2.8-4.5c-0.3-1.5-0.1-3.1-0.3-4.5c-0.3-2.5-1.5-4.3-3.6-5.6
	c-2.2-1.3-4.9-1.9-7.3-2.4c-4.3-0.8-8.2,1.5-12.3,1.5C31.1,37.7,31,38.4,31.4,38.7"/>
<path fill="#607131" d="M54.6,50.2c0.8,2.4,1.1,3.4-0.6,5.5c-0.6,0.7-1.6,1.1-1.4,2.2c0.2,0.9,1.7,1.4,1.5,2.6
	C54,61.6,52.7,62,52.6,63c-0.3,1.3,0.7,1.6,0.9,2.8c0.3,1.6-0.6,3.4-0.7,5c-0.2,2.2,0,4.3,0,6.5c0.7-1.8,0.7-4.1,1.1-6
	c0.4-2,1.1-3.9,1.6-5.9c0.6-2,0.9-4.1,1.2-6.2c0.2-1.8,1.6-4.5,0.5-6c-0.3-0.5-1.2-1.4-1.8-1.7"/>
<path fill="#607131" d="M53.7,69.8c0.3-0.4-0.3,0.5-0.3,0.6c-0.6,0.6-1.4,0.7-2.1,1.2c-0.4,0.3-1.5,0.8-1.8,1.3
	c-0.3,0.8,0.6,1.9,0.7,2.7c0.2,1.3,0,2.6-0.3,3.9c-0.3,2.2-1.9,2.4-3.2,4c1.9-0.2,4.4-0.2,6-0.2c-0.5-2.1-1-3.4-0.4-5.5
	c0.7-2.2,1.2-4.5,1.5-6.8"/>
<path fill="#607131" d="M69.7,18.6c-6.1,3-13,3.6-16.5,10.1c-2.2,3.9-4.1,4.7-8.1,6.2c-2.9,1-7.4,2.8-10.4,3
	c-0.2-2.4,7.1-4.2,8.9-5.3c2.9-2,4.9-5.2,7.9-7.3c5.6-3.7,11.6-6,18-6.9"/>
<path fill="#607131" d="M30.5,103c-1.4,0.5-3.6,4.9-3.3,6.4c1.9,0.1,0.4,2.5,0.5,3.7c1.4-0.5,1.7,1.3,1.6,2.2c0,0.6-0.6,1.3-0.4,1.8
	c0.2,0.8,0.8,0.6,1.4,1.1c1.6,1.4,0.3,4.3,0.1,6c0.9-1.2,1.8-2.2,2.5-3.5c0.4-0.8,1.3-2.3,0.9-3.3c-0.2-0.5-1.1-0.6-1.5-0.9
	c-0.7-0.7-0.1-0.8-0.1-1.5c0.1-0.8-0.7-1-0.9-1.7c-0.2-0.7,0.2-1.3,0.4-1.9c0-0.2,0.2-0.7,0.1-0.9c-0.3-0.5-0.5-0.1-0.9-0.3
	c-0.9-0.6-0.1-0.9,0.2-1.6c0.2-0.7-0.4-0.7-0.5-1.2c-0.1-0.6,0.5-0.9,0.3-1.4c-0.2-0.6-0.8-0.1-0.7-0.9c0.1-0.3,0.6-0.9,0.8-1.3"/>
<path fill="#607131" d="M39.6,35.4l-0.1,0.2c-0.1,0-0.1,0-0.1-0.1c-1.9-0.9-4.6-0.2-6.3,0.8c-0.8,0.5-1.4,1.2-2.2,1.7
	c-2.8,1.9-8,12.9-8.3,14.1c-0.3,1.3-0.6,2.5-1,3.7c-1.1,2.8-3.1,5-4.9,7.3c-1.5,1.9-2.3,5-3.2,7.3c-0.7,1.8-1.2,3.5-1.8,5.4
	c-0.1,0.3-0.2,0.6-0.4,0.9c-1.9,3.1-3.5,6.3-5.2,9.3c2.5-4.7,7.9-7.7,12.7-9.8c2-1,5.6-1.5,4.4-4.5c-0.2-0.6-1.4-1.2-2.1-1.7
	c0.9-0.5,1.9-0.8,2.8-1c1.7-0.4,3-1.2,2.5-3.2c-0.2-0.8-0.9-1.6-0.7-2.5c0.1-1.2,1.5-1.1,2.4-1.7c0.9-0.6,2-1.9,1.8-3
	c-0.2-1.7-1.5-2-2.5-2.9c-0.6-0.5-0.8-0.5-0.2-1.2c0.8-1,2.6-0.8,3.6-1.8c1.9-1.8,0-2.6-1.3-3.7c-1.8-1.5-0.8-1.7,0.9-2.1
	c1.8-0.6,3.7-1.9,0.9-3c0.6-1.3,2.1-0.5,2.8-1.6c1.5-1.8-1.7-1.9-1.7-2.9C32.5,37,38.8,38.1,39.6,35.4"/>
<path fill="#607131" d="M40,119.9c-2.4,0,0.2,2.5,0.6,3.4c1,2.5-0.6,5.4-0.2,8c5.2-1.4,1.8-8,1.9-11.4"/>
<path fill="#607131" d="M21.9,54.9c1.7-2.5,2.4-5.6,3.6-8.4c1.3-3.1,4.4-6.9,7-8.9c3.2-2.5,7.8-2.5,11.2-4.7
	c3.8-2.5,6.8-6.1,10.7-8.6c4.3-2.7,9.1-4.6,14.1-5.5c4.8-0.8,9.5-1.1,14.2-2.3c2.8-0.8,5.7-1.8,6.9-4.6c0.9-2-0.8-4.2-2.6-4.9
	c-2.6-1.1-4.6-0.8-6.9,0.7c-0.7,0.5-1.4,1.2-2.1,1.7c-1.4,1.3-5,3.3-6-1c-1-4.2,4.5-6.2,7.6-6.6c3.8-0.4,8.9,0.3,12.5,1.6
	c5.9,2.1,3.9,11.8,0.1,14.9c-8.6,7.1-43.1,3.3-35.6,22.8c3.1,7.9-0.4,15.7-2.1,23.6c-1.2,5.6-4,12.6-2.5,18.4
	c0.2,0.7,1.3,0.6,1.1-0.1c-0.9-4.1,0.8-9.1,1.8-13c1.4-4.9,2.2-10,3.4-15c0.9-3.6,1.7-7.6,0.6-11.3c-0.6-2.1-1.7-4-2-6.2
	c-0.6-3.7,1.6-6.6,4.7-8.2c8.7-4.6,18.6-5,27.7-8.1c6.3-2.2,8.9-9.3,6.8-15.5C95.6,3.5,93,2.5,91,1.9c-3.6-1-7.7-1.3-11.4-1.1
	c-3.1,0.2-5.9,1.5-7.6,4.1c-1.2,1.7-1.6,5.2,0.4,6.5c2,1.3,3.9,0.8,5.9-0.4c1.9-1.2,3-2.9,5.3-3.5c2-0.5,4.8,1,5.3,3.1
	c0.5,2.3-2.6,3.6-4.1,4.2c-4.8,1.9-10.1,2.3-15.1,2.9c-4.5,0.5-8.8,2.1-12.8,4.1c-4.3,2.2-7.7,5.2-11.3,8.4c-2.1,1.9-4.3,3.2-6.9,4
	c-1.9,0.6-4.1,1-5.8,2.1c-2.9,1.8-5.2,4.9-7.1,7.6c-2.2,3.1-2.5,7.2-4.4,10.5C21,54.9,21.6,55.4,21.9,54.9"/>
<path fill="#607131" d="M36.3,87.9c1-2.4,4.6-3,6.9-3.5c3.4-0.8,6.8-0.5,10.3-0.3c0.7,0,0.9-1,0.2-1.1c-4.3-0.3-8.3-0.2-12.5,0.9
	c-1.8,0.5-5.5,1.4-5.6,3.8C35.5,88.1,36.1,88.4,36.3,87.9"/>
<path fill="#607131" d="M54.3,83.5c0.2-0.9-0.3-2.7,1-2.6c1.2,0.1,2.5,0.4,3.6,1c0.9,0.5,1.8,1.4,2.4,2.3c0.1,0.2,0.2,0.4,0.3,0.5
	c-0.3-0.5-0.5-0.3-1-0.2c-0.7,0.1-1.4,0.4-2.1,0.6c-0.5,0.2-0.2,1,0.3,0.8c1.7-0.5,4,0.9,4.9-1.4c0.7-1.8-1.8-3.8-3-4.6
	c-1.5-1-3.9-1.5-5.6-1.1c-1.9,0.5-1.7,3.2-1.6,4.8C53.4,84,54.2,84,54.3,83.5"/>
<path fill="#607131" d="M58.7,86.1c1.4,1.2,3.3,1.7,4.9,2.5c1.3,0.6,6.5,4.2,3.2,5.6c-2.4,1.1-5.3,0.3-5.1,3.9
	c0,0.5,0.7,0.4,0.7-0.1c0-4.1,6.4-1.1,6.3-5.4c0-4.2-6.7-6-9.7-7.2C58.6,85.3,58.3,85.8,58.7,86.1"/>
<path fill="#607131" d="M67.4,95.5c2.6,2.5,3.6,5.9,2.4,9.4c-0.2,0.5,0.5,0.8,0.8,0.3c2-3.6,0.6-8.1-2.6-10.4
	C67.5,94.5,67,95.1,67.4,95.5"/>
<path fill="#607131" d="M36.2,89.2c-0.8,0-2.2-1-2.8-1.4c-1-0.6-1.9-1.2-3-1.5c-1.9-0.6-4.1,0.2-4.5,2.3c-0.5,2.3-0.3,4.7,0.3,7
	c0.7,2.7,3.3,2.5,5.6,2.5c0.7,0,0.7-1.2,0-1.2c-1.2-0.1-2.5,0.2-3.6-0.5c-0.8-0.5-1.1-1.9-1.2-2.7c-0.4-1.9-0.4-4.2,1.5-5.2
	c1.3-0.7,3.2,1,4.2,1.6c1.4,0.8,2.4,1.1,3.9,0.5C37.2,90.1,36.9,89.2,36.2,89.2"/>
<path fill="#607131" d="M62.3,95.9c-0.7,1.1-0.7,2.6,0.5,3.4c1,0.7,2.5,0.3,3.1-0.6c0.6-0.8,0.4-2,0-2.8c-0.3-0.7-1.3-1.5-2.1-0.8
	c-0.3,0.3-0.2,1,0.3,0.9c0.4-0.1,0.6-0.1,0.8,0.3c0.3,0.4,0.3,1,0.2,1.5c-0.1,0.7-0.9,1-1.5,0.9c-1.1-0.1-1.1-1.4-0.7-2.1
	C63.4,96,62.6,95.4,62.3,95.9"/>
<path fill="#607131" d="M43.6,96.6c-1.3,1.4,1.7,2.2,2.4,2.3c1.9,0.1,4-0.6,5.9-0.3c0.7,0.1,0.9-1,0.2-1.1c-1.2-0.3-2.7,0.1-3.9,0.2
	c-0.9,0.1-1.7,0.1-2.6,0c-1-0.1-1-0.4-1.5-1.1C44,96.4,43.7,96.4,43.6,96.6"/>
<path fill="#607131" d="M50.2,97.5c-0.7,0-1.2,0.2-1.6,0.8c-0.3,0.5-0.4,1.1-0.3,1.7c0.4,1.6,2,1.9,3.4,1.5c1.2-0.4,1.9-1.7,1.5-2.9
	c-0.4-1.3-2.1-1.7-3.2-1c-0.4,0.3-0.1,0.9,0.4,0.9c0.7-0.1,1.4-0.4,1.8,0.4c0.3,0.7-0.2,1.3-0.8,1.6c-0.7,0.3-1.6,0.1-2-0.6
	c-0.3-0.7,0.3-1.4,1-1.6C50.7,98,50.5,97.5,50.2,97.5"/>
<path fill="#607131" d="M65.5,109.4c0.3-0.2,0.3-0.6,0.6-0.8c0.2-0.3,0.5-0.3,0.8-0.3c-0.1-0.4-0.2-0.8-0.3-1.2
	c-0.4,0.2-0.8,0.4-1,0.9c-0.3,0.5,0.3,1,0.8,0.8c0.3-0.1,0.4-0.4,0.7-0.5c0.6-0.3,0.4-1.2-0.3-1.2c-0.6,0-1.1,0.3-1.5,0.7
	c-0.4,0.4-0.7,1.1-0.3,1.6C65,109.4,65.3,109.5,65.5,109.4"/>
<path fill="#607131" d="M58.4,108.1c0.3,0.3,0.8,0.3,1.2,0.3c0.5,0,1,0.1,1.6,0.1c-0.2-0.3-0.3-0.6-0.5-0.9
	c-0.1,0.3-0.2,0.5-0.4,0.7c0.3,0,0.7,0,1,0c-0.4-0.6-1.5-1.1-2.1-0.6c-0.2,0.2-0.3,0.4-0.2,0.7c0.2,0.6,0.9,0.3,1.2,0.7
	c0.2,0.4,0.8,0.3,1,0c0.3-0.3,0.4-0.7,0.5-1c0.2-0.5-0.2-0.9-0.7-0.9c-0.5,0-0.9,0.1-1.4,0.1c-0.4,0-0.8-0.1-1.2,0
	C58.2,107.5,58.2,107.9,58.4,108.1"/>
<path fill="#607131" d="M63,109.9c-1-0.4-4.5-1.2-4-2.9c0.3-1,3-0.7,3.7-0.7c1.2,0.1,4-1.3,4,0.8c0,1.8-2.2,2.9-3.8,2.6
	c-0.6-0.1-0.8,0.9-0.1,1c2.2,0.5,4.2-0.9,4.8-3c0.3-0.8,0-2-0.7-2.5c-1-0.8-2.5,0-3.5,0.2c-1.5,0.3-4.6-0.5-5.2,1.4
	c-0.7,2.1,3.2,3.7,4.7,3.9C63.2,110.8,63.4,110,63,109.9"/>
<path fill="#607131" d="M70.2,104.8c-0.1,0-0.1,0.1-0.2,0.1c-0.2,0.1-0.4,0.3-0.3,0.5c0.2,0.8,0.7,1.1,1.3,1.6
	c0-0.2-0.1-0.4-0.1-0.7c-0.4,0.5-0.4,1-0.3,1.6c0.2,1.5-0.1,2.5-0.7,3.9c-0.7,1.7-2.1,1.3-3.6,0.8c-1.3-0.4-2.2-0.7-2.5-2.2
	c-0.1-0.5-0.8-0.4-0.8,0.1c0,2.6,3.2,3.5,5.4,3.5c1.4,0,1.9-1.2,2.5-2.3c0.3-0.7,0.5-1.5,0.6-2.2c0.1-0.7-0.6-2,0-2.5
	c0.2-0.2,0.3-0.5,0.1-0.7c-0.3-0.4-1-0.8-1-1.3C70.7,104.9,70.4,104.7,70.2,104.8"/>
<path fill="#607131" d="M50.9,107.2c-0.4,0.7-0.6,1.2-0.4,2c0.1,0.2,0.3,0.4,0.5,0.3c0.4-0.2-0.1,1.1-0.1,1.2
	c-0.1,0.3,0.1,0.6,0.4,0.6c0.4,0.1,0.8,0.1,1.3,0.2c-0.1-0.2-0.2-0.5-0.3-0.7c-1.4,1.9,1.3,1.7,0.8,2.7c-0.1,0.3,0.1,0.6,0.4,0.7
	c1,0.1,1.6,0.8,2.6,0.9c1.1,0.1,2.4-0.5,3.5-0.8c2-0.5,3.6-1.7,4.4-3.6c0.3-0.6-0.7-1.1-1-0.4c-0.9,2-2.4,2.6-4.3,3.2
	c-1.1,0.3-2.7,1.1-3.8,0.2c-0.5-0.4-0.6-0.4-1.2-0.5c0.1,0.2,0.2,0.4,0.4,0.7c0.2-0.4,0.4-1,0.1-1.4c-0.4-0.6-1.6-0.3-1.1-1.1
	c0.2-0.3,0.1-0.7-0.3-0.7c-0.4,0-0.8-0.1-1.3-0.2c0.1,0.2,0.2,0.4,0.3,0.6c0.2-0.5,0.6-1.4,0.4-1.9c-0.5-1.1-1.6,0.6-0.5-1.6
	C51.8,107,51.1,106.8,50.9,107.2"/>
<path fill="#607131" d="M55.5,114.5c-0.2,1.5-0.1,3.5,1,4.6c0.2,0.2,0.5,0.3,0.7,0c0.8-1.2,1.3-2.5,1.8-3.8c-0.2,0-0.4,0.1-0.7,0.1
	c0.2,0.3,0.5,0.8,0.9,0.7c0.4,0,1.1-0.8,1.3-0.4c0.2,0.2,0.5,0.2,0.6-0.1c0.4-1,1.3,0.1,1.8,0c0.7-0.1,1.3-0.5,1.9-0.7
	c0.4-0.2,0.2-0.8-0.3-0.7c-0.2,0.1-1.1,0.6-1.2,0.6c-0.4-0.1-0.2-0.1-0.6-0.4c-0.6-0.5-2,0.3-2.2,0.9c0.2,0,0.4,0,0.7,0
	c-0.7-1.2-1.8,0.2-2.2-0.3c-0.2-0.3-0.6-0.3-0.7,0c-0.5,1.2-1.1,2.4-1.8,3.6c0.2,0,0.5,0,0.7,0c-0.9-1-1-2.7-0.8-4
	C56.5,114.1,55.6,113.9,55.5,114.5"/>
<path fill="#607131" d="M64.2,113.6c0.5,1.3,0.3,2.7,0.4,4.1c0,0.3,0.4,0.5,0.7,0.4c1.5-0.6,2.8-2.7,2.4-4.4c-0.1-0.4-0.8-0.5-0.8,0
	c-0.1,1.4-0.6,2.9-2,3.4c0.2,0.1,0.5,0.3,0.7,0.4c-0.1-1.5,0-2.9-0.5-4.3C64.9,112.6,63.9,113,64.2,113.6"/>
<path fill="#607131" d="M51.5,111.4c0.6,2.7-3,4.4-3.6,6.9c-0.7,2.7,0.8,5,1.7,7.5c0.7,2,1.6,3.6,3.8,3.9c3.1,0.5,4.7-3.1,7.9-1.4
	c0.8,0.4,1.3-0.9,0.5-1.3c-1.3-0.7-3.4-1.2-4.8-0.3c-0.6,0.4-1.4,1.4-2.1,1.5c-2.6,0.6-3.6-1.9-4.3-3.8c-0.4-1.1-0.9-2.1-1.3-3.1
	c-1-2.4,0.5-4.1,1.9-5.8c1.1-1.3,1.9-2.7,1.4-4.4C52.4,110.5,51.3,110.8,51.5,111.4"/>
<path fill="#607131" d="M49.4,118.4c0.5-0.1,1,0,0.7,0.5c-0.1,0.2-0.3,0.4-0.5,0.6c-0.3,0.2-0.5,0.3-0.8,0.4
	c-0.3,0.2-0.3,0.8,0.1,0.8c0.9,0,1.8-1,2-1.8c0.3-1-0.8-1.4-1.6-1.2C48.9,117.8,49,118.4,49.4,118.4"/>
<path fill="#607131" d="M49.7,120.6c0.5,0.1,1.7,0.5,0.9,1.1c-0.3,0.2-0.2,0.7,0.2,0.8c0.4,0.1,1.2,0.2,0.9,0.7
	c-0.2,0.2-0.1,0.6,0.2,0.7c0.3,0.1,0.3,0.2,0.3,0.6c0.1,0.4,0.6,0.5,0.8,0.1c0.3-0.8-0.2-1.4-0.9-1.6c0.1,0.2,0.2,0.5,0.3,0.8
	c0.9-1.3-0.3-1.9-1.5-2.2c0.1,0.3,0.1,0.5,0.2,0.8c1.5-1.2,0-2.3-1.3-2.6C49.3,119.7,49.2,120.5,49.7,120.6"/>
<path fill="#607131" d="M51.6,126.2c1.6-1.1,3.3-2.3,3.8-4.2c-0.3,0-0.5,0.1-0.8,0.1c0.5,1.5,0.3,3.2,0,4.7
	c-0.1,0.5,0.8,0.7,0.9,0.1c0.2-1.7,0.5-3.4-0.1-5.1c-0.1-0.4-0.7-0.3-0.8,0.1c-0.4,1.8-2.2,2.7-3.6,3.6
	C50.5,125.8,51.1,126.6,51.6,126.2"/>
<path fill="#607131" d="M55.7,125.9c0.6-0.7,2-0.7,2.9-0.8c0.4,0,0.7,0.4,1.2,0.3c0.6-0.2,0.7-0.5,0.9-1.1c0.4-1,0.8-2,1.2-3
	c-0.3,0-0.5,0-0.8,0c0.9,2,1,4.4,0.5,6.5c-0.1,0.4,0.6,0.6,0.7,0.2c0.8-2,0.4-5.1-0.4-7c-0.1-0.3-0.7-0.4-0.8,0
	c-0.4,0.9-0.7,1.8-1,2.8c-0.1,0.3-0.3,1.1-0.7,0.7c-0.1-0.2-0.3-0.2-0.5-0.2c-1.3-0.1-2.9,0.3-3.7,1.3
	C54.8,125.9,55.4,126.3,55.7,125.9"/>
<path fill="#607131" d="M36.8,95.9c-0.4,0.9-0.6,1.5-0.4,2.5c0.1,0.9,1.2,0.5,0.2,1.9c-0.5,0.7-0.8,1.3-1,2.2
	c-0.2,1.2-1.2,2.1-1.3,3.2c-0.1,0.6,0.4,1.1,0.8,1.6c0.7,0.8-0.5,1.5-1.1,2c-0.8,0.8,0.1,1.7,0.8,2.1c2.9,1.6-1.1,2.6,0.5,4.3
	c0.4,0.4,0.5,0.5,1.1,0.6c1.3,0.3,0.4,1.2,0.8,2c0.8,2,3.4-0.3,4.1,1.4c0.5,1.4,1.5,1.8,2.9,1.4c0.8-0.2,0.3-1.4-0.5-1.2
	c-1.7,0.5-1-1.5-2.1-2c-0.7-0.3-1.3-0.1-2,0c-1.7,0.2-0.8-0.7-1-1.4c-0.2-0.6-0.3-0.7-0.8-1.2c-0.6-0.6-2.6,0.3-1-1.7
	c0.6-0.7,1-1.8,0.1-2.5c-0.4-0.3-0.9-0.4-1.4-0.5c-1.8-0.4,0.2-1.5,0.5-1.8c0.3-0.4,1.1-1.3,0.3-1.7c-1.5-0.9,0.7-5.9,1.3-6.8
	c0.9-1.3-0.8-2.5-0.2-4.1C37.6,95.7,37,95.5,36.8,95.9"/>
<path fill="#607131" d="M45.3,121.5c-0.2,2.7,1,5.1,2.5,7.3c1.7,2.6,3,4.8,6.4,5c2.2,0.1,6.1,0.6,7.9-1c1.4-1.1,1.1-3.9,0.4-5.3
	c-0.3-0.6-1.3-0.2-1,0.4c1.3,3.4-1.7,4.4-4.5,4.3c-2.1-0.1-4.2,0.8-5.9-1.1c-2.5-2.8-4.6-5.9-5.1-9.7
	C46,121.1,45.4,121.1,45.3,121.5"/>
<path fill="#607131" d="M42.1,119.9c-1.5,1-0.4,5.2,0,6.6c0.5,2,2,3.4,3.6,4.6c3,2.4,5.2,8-1,6.8c-0.4-0.1-0.6,0.2-0.7,0.5
	c-0.7,3.2-3.8,1.7-5.6,1.9c-0.3,0-0.5,0.3-0.6,0.6c-0.2,2.4-3.8,1.5-5.1,1c-0.7-0.3-1.2,0.8-0.5,1.1c1.5,0.6,3.3,1.3,4.9,0.6
	c0.6-0.3,1-0.7,1.4-1.2c0.2-0.3,0.3-0.5,0.5-0.8c0.3-0.8-0.3-0.1,0.7,0c1.7,0.2,3.3,0,4.8-0.9c0.4-0.3,0.5-0.8,0.7-1.2
	c0.1-0.3,2-0.2,2.5-0.2c3.1-0.4,3.2-4.1,1.9-6.3c-1.3-2-3.4-3-4.9-4.7c-1-1.1-1.5-3-1.7-4.4c-0.1-0.6-0.5-3-0.1-3.3
	C43,120.2,42.6,119.6,42.1,119.9"/>
<path fill="#607131" d="M31.3,98.4c0.7,0.8-0.5,1.7-0.2,2.5c0.4,1.1,0.1,1-0.7,2.2c-0.1,0.2-0.1,0.5,0.1,0.6
	c-0.3-0.2-1.6,1.3-1.9,1.7c-0.2,0.3,0,0.7,0.4,0.7c2,0,0.7,0.4,0.1,1.3c-0.3,0.4,0.1,0.8,0.5,0.6c2.4-0.7-0.4,1.6-0.8,2.3
	c-0.2,0.4,0.2,0.9,0.6,0.6c2.6-2.3,1.5,1.4,1,2.4c-0.1,0.3,0.2,0.7,0.5,0.5c1,0.7,1.1,1.4,0.4,2c-0.2,0.3,0,0.6,0.3,0.6
	c1.8,0.4,2,0.9,1.6,2.7c-0.1,0.3,0.3,0.6,0.5,0.4c0.8-0.4,4.2,0.3,4.4,1.2c0,0.2,0.3,0.4,0.5,0.3c0.6-0.1,1.2-0.1,1.8-0.2
	c0.1,0.1,0.3,0,0.4,0c0.4-0.3,0.7-0.5,1.1-0.8c0.4-0.3-0.1-0.8-0.4-0.6c0,0-2.7,0.6-2.7,0.7c-0.1-0.4-0.3-1.2-0.8-1.2
	c-0.8,0-1.5-0.1-2.3-0.4c-1.7-0.7-1.8,1.2-1.4-1.1c0.1-0.5,0-0.9-0.5-1c-0.4-0.1-0.7-0.3-1.1-0.4c-1.3-0.4-0.7,0.1,0-0.8
	c0.9-1.2-1.1-2.6-2.1-2.1c0.2,0.2,0.4,0.4,0.5,0.5c0.3-0.7,2-3.1,1-3.9c-0.9-0.7-2.4-0.2-3.2,0.5c0.2,0.2,0.4,0.4,0.6,0.6
	c0.7-1.1,1.7-1.9,2.7-2.7c0.2-0.2,0.2-0.5,0-0.7c-0.9-0.8-1.7-0.5-2.9-0.2c0.2,0.2,0.3,0.4,0.5,0.6c0.7-1,1.4-1.1,1.8-2.2
	c0.1-0.3-0.1-0.6-0.4-0.6c-0.7,0-1.5,0.1-2.2,0c0.1,0.2,0.3,0.5,0.4,0.7c0.6-0.8,1.3-1.4,2.2-1.8c0.3-0.1,0.4-0.6,0.1-0.8
	c-0.3-0.7,0.1-1.2,1-1.5c0.2-0.1,0.3-0.4,0.1-0.6c-1.2-1.2,0.5-2-0.7-3.4C31.6,97.3,30.9,97.9,31.3,98.4"/>
<path fill="#607131" d="M68.5,115.7c0,0,0.6,0.4,0.6,0.4c0.1,0,0.2,0,0.3,0c0.4,0,0.8,0.2,1,0.6c0.2,0.1,0.5,0,0.5-0.2
	c0-0.5-0.4-2.5,0.4-1.4c0.2,0.2,0.5,0.1,0.6-0.1c0.2-0.8,0-2.4,0.7-2.2c0.3,0.1,0.5-0.2,0.5-0.4c0,0.4-0.3-1.4,0.1-1.3
	c0.3,0,0.6-0.3,0.5-0.6c-0.4-0.8-0.8-1.5-1.1-2.3c-0.2,0.2-0.3,0.4-0.5,0.6c0.4,0.1,0.7,0.2,1.1,0.3c0.3,0.1,0.5-0.2,0.5-0.5
	c0-1.4-0.4-2.3-1.5-3.2c0,0.2-0.1,0.5-0.1,0.7c0.4-0.1,0.9-0.2,1.3-0.3c0.3,0,0.5-0.3,0.3-0.6c-0.4-0.7-0.7-0.9-1.5-1.3
	c0,0.3,0,0.5,0,0.7c0.4-0.1,0.8-0.2,1.2-0.4c0.2,0,0.4-0.2,0.3-0.4c-0.1-1.1-0.7-1.6-1.5-2.3c-0.4-0.3-0.9,0.3-0.5,0.6
	c0.9,0.8,1.2,1.3,0.1,1.8c-0.3,0.1-0.3,0.6,0,0.7c1,0.5,0.6,0.4-0.1,0.6c-0.3,0.1-0.3,0.5-0.1,0.7c0.2,0.6,0.4,1.3,0.6,1.9
	c-0.3-0.1-0.6,0.3-0.5,0.6c0.3,0.8,0.7,1.5,1.1,2.3c0.2-0.2,0.3-0.4,0.5-0.6c-0.4,0-0.7,0-1.1,0c-0.3,0-0.4,0.4-0.3,0.6
	c0.8,1,0.8,1.4,0,1.1c-0.3,0-0.5,0.2-0.4,0.4c0.2,2,0.4,2.2-0.6,1.4c-0.2-0.2-0.5,0-0.5,0.3c0.1,1.5,0.5,2.1-0.6,1.5
	c-0.1-0.1-0.3-0.1-0.4,0c-0.1-0.1-0.2-0.1-0.3-0.2c-0.1-0.1-0.3-0.1-0.4-0.1c-0.1,0-0.2,0.1-0.3,0.1
	C67.8,115.3,68.1,115.9,68.5,115.7"/>
<path fill="#607131" d="M33.3,117.9c-0.8,0.4-1.2,0.8-1.6,1.6c-1,1.7-3.1,2.7-3.9,4.4c-0.6,1.3-1.5,3.1-1,4.5
	c0.3,0.9,0.7,1.7,1.2,2.5c0.5,0.9,1.1,1.1,0.2,1.5c-0.3,0.1-0.4,0.4-0.3,0.7c0.6,1.3,1.1,2.6,1.4,4c0.2,1.1-0.2,1.8-0.4,2.8
	c-0.1,0.4,0.2,0.8,0.4,1.2c1,1.6,1.6,2.8,1.8,4.7c0.2,1.9,1.3,3.6,2.5,5.1c1.9,2.5,3.6,4.9,5.3,7.5c0.4,0.7,4.1,5.6,1,6.2
	c-0.4,0.1-1,0.2-1.3,0.5c-0.9,0.7-0.4,1.6,0.1,2.4c2.6,4.1-0.8,8.8-5.6,7.8c-2.7-0.6-6.5,3.5-8.3,0c-0.2-0.3-0.5-0.5-0.9-0.4
	c-2.2,1-4,0.6-5.4-1.4c-0.2-0.2-0.5-0.3-0.8-0.2c-1.7,0.9-3.4-0.3-3.7-2.1c-0.3-2.1-0.2-3.7,1.1-5.5c1.2-1.6,2.7-2.9,3.6-4.8
	c0.7-1.4,0.7-3.1,0.1-4.5c-0.2-0.4-0.7-0.8-1.1-1.1c-1.2-1-0.7-2.8-0.8-4.1c0-0.8-1.3-0.7-1.3,0.2c0.1,2-0.3,3.6,1.3,5
	c3.3,3-1.7,7-3.4,9.3c-1.5,2-2,8.8,1.4,9.5c0.6,0.1,1.1,0.2,1.7,0c1.4-0.4,1.4,0.2,2.5,0.9c1,0.6,1.7,0.8,2.9,0.9
	c0.5,0,1.5-0.5,1.9-0.1c1.1,1.2,2.1,1.5,3.7,1.2c1.7-0.3,3.3-1.6,5.1-1.3c1.3,0.2,2.3,0.3,3.6,0.1c2.9-0.5,5.9-6.1,4.3-8.6
	c-0.6-0.9-1.9-2-0.1-2.3c0.4-0.1,1-0.3,1.3-0.6c1.4-1.8,0-3.8-0.9-5.4c-1.4-2.5-3-5.1-4.7-7.4c-2.1-2.8-3.9-4.8-4.2-8.4
	c0-0.6-0.3-1.3-0.7-1.8c-1-1.3-1-1.9-0.8-3.5c0.1-1-0.3-2.3-0.5-3.3c-0.2-0.9-1.4-2-0.3-2.4c0.4-0.1,0.4-0.5,0.2-0.8
	c-0.7-1.1-1.4-2.2-1.9-3.4c-1.1-2.3,1-5,2.5-6.3c1.1-0.9,2.1-3.1,3.3-3.7C34.2,118.5,33.9,117.7,33.3,117.9"/>
<path fill="#607131" d="M21.1,54.8c-0.7,4.3-4.3,6.9-6.4,10.5c-2.2,3.7-2.8,8.3-4.3,12.3c-1.5,4-4.4,7.6-6.3,11.4
	c-1.9,4-3.2,8.3-3.6,12.8c-0.3,3.8,0.6,7.4,2.1,10.9c2.1,4.8,3.5,9.8,4.5,14.8c0.8,3.9,1.1,7.9,2.2,11.7c1.2,4.2,5.8,7,6,11.5
	c0,0.9,1.3,0.7,1.3-0.2c0-3.4-2.4-5.9-4.3-8.4c-2.7-3.8-2.7-9.2-3.6-13.7c-0.8-4.1-1.8-8.1-3.2-12c-1.8-5.3-4.1-9.6-3.6-15.5
	c0.4-4.7,2.3-9.2,4.4-13.4c2-3.9,4.6-7.2,6-11.4c1.4-4.3,2-8.7,4.8-12.4c2.1-2.8,4.4-5.1,4.9-8.7C22.1,54.3,21.2,54.2,21.1,54.8"/>
<path fill="#607131" d="M15.4,173.7c-0.4-0.8-0.8-3-0.1-3.7c0.3-0.3,1,1.1,1.1,1.3c0.6,1.1-0.1,2-0.9,2.7c-0.4,0.3,0,1,0.4,0.8
	c1.1-0.5,2-2.1,1.5-3.3c-0.3-0.8-1-2.1-1.9-2.3c-0.9-0.2-1.2,1.2-1.3,1.8c-0.1,0.9,0,2.1,0.5,3C15,174.2,15.5,174,15.4,173.7"/>
<path fill="#607131" d="M21.4,175.2c-0.5-0.8-0.7-1.8-0.6-2.8c0-0.4,0-0.7,0.5-0.5c0.2,0.1,0.4,0.3,0.5,0.5c0.7,1,0.6,2.6-0.4,3.3
	c-0.5,0.3,0,1.2,0.5,0.9c1.8-0.9,1.7-3.8,0.4-5.1c-0.4-0.4-1.8-1-2.1-0.2c-0.5,1.4-0.3,2.9,0.4,4.2C20.8,176,21.6,175.6,21.4,175.2"
	/>
<path fill="#607131" d="M27.5,176.7c-0.4-1.5-1.1-3-0.7-4.5c-0.2,0.1-0.4,0.1-0.6,0.2c0.8,0.5,1.5,1.1,1.9,2c0.5,1-0.2,1.7-0.7,2.5
	c-0.4,0.6,0.5,1.3,0.9,0.7c0.8-1.1,1.3-1.9,0.9-3.3c-0.4-1.2-1.5-2.3-2.7-2.6c-0.2-0.1-0.4,0.2-0.5,0.4c-0.3,1.9,0.3,3.3,0.8,5
	C27,177.4,27.6,177.1,27.5,176.7"/>
<path fill="#607131" d="M34,175.8c-0.3-1.3-0.8-2.8-0.5-4.1c-0.2,0.1-0.5,0.2-0.7,0.3c0.8,0.7,1.7,1.2,2.1,2.3
	c0.1,0.3,0.4,0.6,0,0.8c-0.4,0.2-0.7,0.3-1.1,0.5c-0.6,0.4,0,1.3,0.6,1c1-0.4,2.1-0.9,1.8-2.1c-0.3-1.4-1.6-2.7-2.9-3.3
	c-0.3-0.1-0.6,0.1-0.6,0.4c-0.1,0.7,0,5,1.2,4.5C34,176.1,34,175.9,34,175.8"/>
<path fill="#607131" d="M37.1,142.3c-0.4-0.5-1-1.1-1.3-1.7c-0.3-0.7,0.2-1.7,0.5-2.4c-0.2,0.1-0.4,0.2-0.6,0.3
	c1,0.5,1.5,2.6,1.1,3.6c-0.2,0.6,0.6,1,0.9,0.4c0.8-1.5-0.2-4.1-1.7-4.8c-0.2-0.1-0.5,0-0.6,0.3c-0.4,0.8-0.8,1.7-0.7,2.7
	c0.1,0.9,0.9,1.7,1.6,2.3C36.7,143.3,37.5,142.8,37.1,142.3"/>
<path fill="#607131" d="M42.7,140.6c-0.4-0.8-0.8-1.4-0.8-2.3c0-0.8,0.3-1.6,0.4-2.4c-0.2,0.1-0.5,0.2-0.7,0.3
	c1.4,0.9,1.8,3.1,1,4.5c-0.3,0.5,0.4,1,0.7,0.5c1.2-1.8,0.8-4.6-1.1-5.8c-0.3-0.2-0.7-0.1-0.7,0.3c-0.3,1.9-0.8,3.7,0.8,5.2
	C42.4,141.2,42.8,140.9,42.7,140.6"/>
<path fill="#607131" d="M48.1,137.8c-1.2-0.7-1.2-2.4-0.6-3.6c-0.2,0-0.5,0.1-0.7,0.1c0.4,0.5,0.8,1,1.1,1.6
	c0.2,0.3,0.3,0.7,0.4,1.1c0.1,0.4-0.2,0.7-0.3,1c-0.1,0.3,0.2,0.7,0.5,0.5c1.8-1-0.1-3.9-1.1-4.8c-0.2-0.2-0.6-0.1-0.7,0.2
	c-0.7,1.6-0.8,3.7,1,4.6C48.1,138.7,48.4,138,48.1,137.8"/>
<path fill="#607131" d="M36.1,134.2c1.1,1.1,1.9,2,2.2,3.6c0.2,1.3-0.2,2.5-0.2,3.8c0,0.4,0.5,0.6,0.7,0.2c1.1-2.8,0.3-6.3-2.3-7.9
	C36.1,133.5,35.8,133.9,36.1,134.2"/>
<path fill="#607131" d="M41.7,132.6c1.2,0.6,1.8,1.6,2.2,2.9c0.3,1.1,0.1,2.2,0.3,3.3c0.1,0.4,0.7,0.4,0.7,0c0.6-2.6-0.5-5.8-2.9-7
	C41.6,131.6,41.3,132.3,41.7,132.6"/>
<path fill="#607131" d="M19,166.8c-1.5,2.2-1.6,5.3-0.6,7.7c0.2,0.4,0.8,0.2,0.7-0.2c-0.7-2.5-0.7-4.8,0.4-7.2
	C19.7,166.8,19.2,166.5,19,166.8"/>
<path fill="#607131" d="M25.2,167.8c-1.9,2.1-2.2,6.3-1.1,8.8c0.2,0.4,0.8,0.2,0.8-0.2c-0.2-2.8-0.8-5.7,0.8-8.2
	C25.9,167.8,25.5,167.5,25.2,167.8"/>
<path fill="#607131" d="M30.2,168.4c-1,2.7-0.2,5.7,1.6,7.9c0.3,0.3,0.9,0,0.7-0.4c-1.3-2.3-2.3-4.5-1.6-7.2
	C31,168.3,30.3,168,30.2,168.4"/>
<path fill="#607131" d="M24.9,50.1c1.1,0.2,1.7,0,2.4-0.9c2-2.3,5.2-1.6,7.9-1.7c3.1-0.1,7.5-0.2,8.6,3.3c0.6,1.8,0.9,3.7,1.6,5.5
	c0.2,0.5,0.9,0.2,0.7-0.3c-0.9-2.3-0.1-4.8-1.2-7.2c-0.8-1.9-2.9-2.4-4.7-2.8c-2.8-0.6-6.1-0.3-8.9-0.2c-1.3,0-2.3,0.3-3.5,0.7
	c-1.3,0.5-1.6,2.1-3,2.4C24.2,49.1,24.2,50,24.9,50.1"/>
<path fill="#607131" d="M22.7,54.9c4.1,2.4,7.6,0.6,11.7-1.2c3.7-1.6,6.3-0.6,7,3.6c0.5,2.7,2,4.7,2.9,7.2c0.2,0.5,1,0.3,0.9-0.2
	c-0.5-3.1-1.3-6.2-2-9.2c-0.4-1.8-1.6-3.1-3.2-3.9c-1.7-0.8-3.8-0.4-5.4,0.2c-4,1.4-6.8,3.8-11.3,2.3C22.4,53.5,22,54.5,22.7,54.9"
	/>
<path fill="#607131" d="M18.3,63.3c0.9-0.6,1.9-1.2,2.9-1.6c2-0.9,3.2,0.1,4.8,0.9c1.9,0.9,3.7,0.6,5.7,0.1c1-0.2,2-0.7,3-1
	c3.1-1.1,4.6,1.2,4.9,3.8c0.3,2.7,2.6,4.6,3.9,6.9c0.3,0.6,1.1,0.2,1-0.4c-0.5-1.9-1.4-3.6-2.3-5.3c-0.9-1.6-0.2-3.8-1.1-5.5
	c-1.2-2.3-3.8-2.8-6.2-2.3c-1.5,0.3-2.9,1.1-4.4,1.5c-2.3,0.6-3.9-0.6-6-1.3c-2.5-0.8-5.4,1.6-7.1,3.1
	C16.7,62.7,17.5,63.8,18.3,63.3"/>
<path fill="#607131" d="M12.7,76.6c1.4-1.7,3.2-3.4,5.1-4.5c2.8-1.6,5.7-1,8.7-1c1.3,0,2.4-0.2,3.7-0.5c2.1-0.6,3.2,0,5,0.8
	c2.7,1.1,3.6,3.1,5.5,5c0.4,0.4,1-0.2,0.8-0.6c-1.7-3.2-2.8-5-5.8-7.1c-3.6-2.4-6.4-0.1-10.2-0.4c-3.6-0.2-6.7,0.1-9.8,2.2
	c-1.7,1.1-3.7,3.6-4,5.6C11.6,76.7,12.4,77,12.7,76.6"/>
<path fill="#607131" d="M27.5,44.3c2.8,0.9,5.1,0.6,8-0.1c4.3-1.2,8.4-1.4,12.2,1.2c3.9,2.6-0.4,6,0.3,9.5c0.8,3.8-2.5,7.2,0.2,10.8
	c0.4,0.5,1.2,0,0.9-0.5c-1.3-3-0.4-5.3,0.2-8.2c0.2-0.9,0.1-1.2,0-2.2c-0.3-2.4,0.9-3.3,2-5c1.4-2.2,0.1-4.5-1.6-6
	c-2.1-2-5.5-2.8-8.3-3c-4.7-0.3-8.8,2.6-13.5,2C27,42.6,26.6,44,27.5,44.3"/>
<path fill="#607131" d="M17.2,75c1.5-1.1,4.8-0.4,6.6-0.6c2.4-0.3,3.7,1.1,5.6,2.1c1.8,1,3.7,1.3,5.7,1.9c1.5,0.4,5,0.5,6,1.8
	c0.4,0.5,1.1,0,0.9-0.5c-0.7-1.6-3.2-2.3-4.6-3.3c-2.6-1.8-6.1-1.5-8.7-3.5c-1.8-1.4-4.1-1.2-6.1-0.7c-2.4,0.5-4.4,0-6.2,2
	C15.9,74.7,16.6,75.4,17.2,75"/>
</svg>
